# xmcd
#
# Track frame offsets: 
#        150
#        16752
#        34732
#        51765
#        67762
#        84217
#        100965
#        121537
#        137185
#        151192
#        165535
#        175762
#
# Disc length: 2507 seconds
#
# Revision: 0
# Processed by: cddbd v1.4PL0 Copyright (c) Steve Scherf et al.
# Submitted via: ExactAudioCopy v0.90a11
#
DISCID=8109c90c
DTITLE=Shenandoah - 2000
DYEAR=1900
DGENRE=
TTITLE0=Building A Home
TTITLE1=Tied To A Tumbleweed
TTITLE2=What Children Believe
TTITLE3=Something I Fell Into
TTITLE4=I Really Don't Want To Know
TTITLE5=Room To Run Around
TTITLE6=Hillbilly Hotel
TTITLE7=When You Were Mine
TTITLE8=Make The Best Of It
TTITLE9=Loving You Again
TTITLE10=Lickity Split
TTITLE11=The Booger Song
EXTD=
EXTT0=
EXTT1=
EXTT2=
EXTT3=
EXTT4=
EXTT5=
EXTT6=
EXTT7=
EXTT8=
EXTT9=
EXTT10=
EXTT11=
PLAYORDER=
